<svg width="100" height="20" viewBox="0 0 100 20" xmlns="http://www.w3.org/2000/svg"><title>login_fb</title><path d="M7.824 3.135c-1.177 0-1.519.54-1.519 1.73v1.972h3.141l-.314 3.19H6.305v9.677H2.537v-9.676H0v-3.19h2.537v-1.92C2.537 1.703 3.794 0 7.3 0c.76 0 1.648.054 2.198.134v3m3.978 10.596c0 1.92.68 3.189 2.433 3.189 1.544 0 2.33-1.162 2.33-2.999v-1.298c0-1.839-.786-3-2.33-3-1.753 0-2.433 1.27-2.433 3.19v.918zm-3.769-.865c0-3.595 1.649-6.298 5.103-6.298 1.884 0 3.035 1 3.584 2.243V6.837h3.612v12.866h-3.612v-1.945c-.523 1.243-1.7 2.215-3.584 2.215-3.454 0-5.103-2.702-5.103-6.297v-.81zm20.147-6.298c1.465 0 2.853.324 3.61.865l-.837 2.757a5.776 5.776 0 0 0-2.511-.595c-2.042 0-2.931 1.216-2.931 3.298v.756c0 2.082.89 3.298 2.93 3.298.995 0 1.937-.298 2.512-.595l.837 2.757c-.757.541-2.145.865-3.61.865-4.421 0-6.437-2.46-6.437-6.406v-.594c0-3.946 2.016-6.406 6.437-6.406m7.876 5.514h4.553v-.324c0-1.405-.55-2.513-2.198-2.513-1.702 0-2.355 1.108-2.355 2.837m-3.768 1.676v-1.135c0-3.649 2.014-6.055 6.123-6.055 3.872 0 5.572 2.433 5.572 6.001v2.054H37.73c.078 1.758.837 2.54 2.93 2.54 1.413 0 2.905-.297 4.004-.782l.68 2.675c-.994.54-3.035.945-4.841.945-4.761 0-6.541-2.458-6.541-6.243m21.9-.974c0-1.811-.68-3.162-2.485-3.162-1.544 0-2.381 1.135-2.381 2.972v1.352c0 1.839.837 2.974 2.381 2.974 1.804 0 2.485-1.352 2.485-3.164v-.972zm3.768.892c0 3.595-1.674 6.298-5.128 6.298-1.884 0-3.193-.974-3.716-2.216v1.946h-3.558V.376l3.768-.35V8.62c.549-1.135 1.752-2.054 3.506-2.054 3.454 0 5.128 2.702 5.128 6.297v.81zm9.89-1c0-1.702-.681-3.054-2.434-3.054-1.753 0-2.433 1.352-2.433 3.055v1.188c0 1.703.68 3.055 2.433 3.055 1.753 0 2.434-1.352 2.434-3.055v-1.188zm-8.635.92v-.649c0-3.702 2.04-6.379 6.201-6.379 4.16 0 6.202 2.677 6.202 6.38v.647c0 3.704-2.042 6.38-6.202 6.38s-6.2-2.676-6.2-6.38zm22.292-.92c0-1.702-.68-3.054-2.433-3.054-1.754 0-2.433 1.352-2.433 3.055v1.188c0 1.703.68 3.055 2.433 3.055 1.752 0 2.433-1.352 2.433-3.055v-1.188zm-8.634.92v-.649c0-3.702 2.04-6.379 6.201-6.379 4.16 0 6.201 2.677 6.201 6.38v.647c0 3.704-2.041 6.38-6.2 6.38-4.162 0-6.202-2.676-6.202-6.38zm17.581-.622l3.716-6.136h4.004l-3.9 6.352L100 19.703h-4.002l-3.874-6.297v6.297h-3.768V.378l3.768-.353" fill="#FFF" fill-rule="evenodd"/></svg>