<svg width="81" height="27" viewBox="0 0 81 27" xmlns="http://www.w3.org/2000/svg"><title>login_google</title><path d="M34.663 14.209c0 3.884-3 6.747-6.684 6.747-3.683 0-6.684-2.863-6.684-6.747 0-3.912 3.001-6.747 6.684-6.747 3.683 0 6.684 2.835 6.684 6.747zm-2.926 0c0-2.428-1.739-4.089-3.758-4.089-2.018 0-3.758 1.661-3.758 4.089 0 2.403 1.74 4.088 3.758 4.088 2.019 0 3.758-1.688 3.758-4.088zm17.345 0c0 3.884-3 6.747-6.683 6.747s-6.684-2.863-6.684-6.747c0-3.91 3-6.747 6.684-6.747 3.682 0 6.683 2.835 6.683 6.747zm-2.925 0c0-2.428-1.74-4.089-3.758-4.089-2.02 0-3.758 1.661-3.758 4.089 0 2.403 1.739 4.088 3.758 4.088 2.018 0 3.758-1.688 3.758-4.088zM62.9 7.869v12.113c0 4.983-2.902 7.018-6.333 7.018-3.229 0-5.172-2.187-5.905-3.976l2.547-1.074c.454 1.099 1.565 2.394 3.355 2.394 2.196 0 3.557-1.371 3.557-3.954v-.97h-.102c-.655.818-1.917 1.533-3.509 1.533-3.331 0-6.383-2.939-6.383-6.72 0-3.808 3.052-6.771 6.383-6.771 1.59 0 2.851.715 3.509 1.509h.102V7.872H62.9V7.87zm-2.572 6.364c0-2.376-1.565-4.113-3.556-4.113-2.019 0-3.71 1.737-3.71 4.113 0 2.351 1.691 4.064 3.71 4.064 1.991 0 3.556-1.713 3.556-4.064zM67.482.77v19.772h-2.854V.77h2.854zm11.12 15.66l2.272 1.532c-.733 1.099-2.5 2.99-5.552 2.99-3.785 0-6.611-2.962-6.611-6.746 0-4.013 2.85-6.747 6.284-6.747 3.458 0 5.149 2.786 5.702 4.292l.303.766-8.907 3.736c.682 1.354 1.742 2.044 3.23 2.044 1.49 0 2.523-.742 3.28-1.868zm-6.99-2.428l5.954-2.504c-.327-.842-1.312-1.43-2.472-1.43-1.487 0-3.557 1.33-3.482 3.934zm-61.119-1.548V9.59h9.526c.093.499.14 1.09.14 1.728 0 2.148-.579 4.803-2.447 6.695-1.818 1.917-4.14 2.939-7.216 2.939C4.794 20.953 0 16.25 0 10.476 0 4.703 4.794 0 10.496 0c3.154 0 5.401 1.253 7.09 2.887l-1.995 2.02c-1.21-1.15-2.851-2.045-5.098-2.045-4.164 0-7.42 3.398-7.42 7.614 0 4.216 3.256 7.614 7.42 7.614 2.7 0 4.239-1.098 5.224-2.096.799-.809 1.325-1.965 1.532-3.543l-6.756.003z" fill="#FFF"/></svg>