<svg width="26" height="26" viewBox="0 0 26 26" xmlns="http://www.w3.org/2000/svg"><title>social_fb</title><g fill="none" fill-rule="evenodd"><path d="M0 0h26v26H0z"/><path d="M23.675 25c.732 0 1.325-.593 1.325-1.325V2.325C25 1.593 24.407 1 23.675 1H2.325C1.593 1 1 1.593 1 2.325v21.35C1 24.407 1.593 25 2.325 25h21.35" fill="#395185"/><path d="M18.14 25v-9.123h3.243l.486-3.555h-3.73v-2.27c0-1.03.304-1.731 1.867-1.731L22 8.32V5.14A28.247 28.247 0 0 0 19.094 5c-2.874 0-4.843 1.657-4.843 4.7v2.622H11v3.555h3.251V25h3.889" fill="#FFFFFE"/></g></svg>