<svg width="26" height="26" viewBox="0 0 26 26" xmlns="http://www.w3.org/2000/svg"><title>social_yt</title><g fill="none" fill-rule="evenodd"><path d="M0 0h26v26H0z"/><path d="M25.457 6.81a3.238 3.238 0 0 0-2.299-2.273C21.13 4 13 4 13 4s-8.13 0-10.158.537A3.238 3.238 0 0 0 .543 6.811C0 8.816 0 13 0 13s0 4.184.543 6.19a3.239 3.239 0 0 0 2.299 2.273C4.87 22 13 22 13 22s8.13 0 10.158-.537a3.239 3.239 0 0 0 2.299-2.274C26 17.184 26 13 26 13s0-4.184-.543-6.19" fill="#D9252A"/><path fill="#FFFFFE" d="M10.34 16.799L17.137 13l-6.795-3.799V16.8"/></g></svg>