<svg width="26" height="26" viewBox="0 0 26 26" xmlns="http://www.w3.org/2000/svg"><title>social_tw</title><g fill="none" fill-rule="evenodd"><path d="M0 0h26v26H0z"/><circle fill="#1DA1F2" fill-rule="nonzero" cx="13" cy="13" r="12"/><path d="M10.804 19.33c5.322 0 8.232-4.41 8.232-8.232 0-.126 0-.252-.006-.372a5.927 5.927 0 0 0 1.446-1.5 5.872 5.872 0 0 1-1.662.456c.6-.36 1.056-.924 1.272-1.602-.558.33-1.176.57-1.836.702a2.894 2.894 0 0 0-4.926 2.64A8.208 8.208 0 0 1 7.36 8.398c-.246.426-.39.924-.39 1.452 0 1.002.51 1.89 1.29 2.406a2.842 2.842 0 0 1-1.308-.36v.036c0 1.404.996 2.568 2.322 2.838a2.884 2.884 0 0 1-1.308.048 2.889 2.889 0 0 0 2.7 2.01 5.816 5.816 0 0 1-4.284 1.194 8.06 8.06 0 0 0 4.422 1.308" fill="#FFF" fill-rule="nonzero"/></g></svg>