<svg width="26" height="26" viewBox="0 0 26 26" xmlns="http://www.w3.org/2000/svg"><title>social_te</title><defs><linearGradient x1="66.67%" y1="16.67%" x2="41.67%" y2="75%" id="a"><stop stop-color="#37AEE2" offset="0%"/><stop stop-color="#1E96C8" offset="100%"/></linearGradient><linearGradient x1="61.235%" y1="43.69%" x2="74.706%" y2="80.24%" id="b"><stop stop-color="#EFF7FC" offset="0%"/><stop stop-color="#FFF" offset="100%"/></linearGradient></defs><g fill="none" fill-rule="evenodd"><path d="M0 0h26v26H0z"/><circle fill="url(#a)" fill-rule="nonzero" cx="13" cy="13" r="12"/><path d="M10.8 18.5c-.389 0-.323-.147-.457-.517L9.2 14.221 18 9" fill="#C8DAEA" fill-rule="nonzero"/><path d="M10.8 18.5c.3 0 .433-.137.6-.3l1.6-1.556-1.996-1.203" fill="#A9C9DD" fill-rule="nonzero"/><path d="M11.004 15.441l4.836 3.573c.552.304.95.147 1.088-.512l1.968-9.277c.202-.808-.308-1.174-.836-.935L6.501 12.748c-.789.316-.784.756-.144.952l2.967.926 6.867-4.332c.324-.197.622-.091.377.125" fill="url(#b)" fill-rule="nonzero"/></g></svg>