<svg width="26" height="26" viewBox="0 0 26 26" xmlns="http://www.w3.org/2000/svg"><title>social_in</title><defs><radialGradient cx="26.563%" cy="107.702%" fx="26.563%" fy="107.702%" r="49.991%" id="a"><stop stop-color="#FD5" offset="0%"/><stop stop-color="#FD5" offset="10%"/><stop stop-color="#FF543E" offset="50%"/><stop stop-color="#C837AB" offset="100%"/></radialGradient><radialGradient cx="-16.751%" cy="7.204%" fx="-16.751%" fy="7.204%" r="49.991%" id="b"><stop stop-color="#3771C8" offset="0%"/><stop stop-color="#3771C8" offset="12.8%"/><stop stop-color="#60F" stop-opacity="0" offset="100%"/></radialGradient></defs><g fill="none" fill-rule="evenodd"><path d="M0 0h26v26H0z"/><path d="M13.004 1c-5.01 0-6.475.005-6.76.029-1.028.085-1.668.247-2.365.594A4.79 4.79 0 0 0 2.5 2.633c-.761.79-1.222 1.763-1.39 2.92-.08.56-.104.675-.11 3.542v3.9c0 5.007.006 6.472.03 6.756.083 1 .24 1.63.573 2.319a5.055 5.055 0 0 0 3.276 2.677c.495.127 1.04.198 1.742.23.297.014 3.326.023 6.357.023s6.062-.004 6.352-.018c.812-.039 1.283-.102 1.805-.237a5.025 5.025 0 0 0 3.276-2.682c.326-.673.491-1.326.566-2.275.016-.206.023-3.503.023-6.796s-.007-6.584-.024-6.79c-.075-.964-.24-1.612-.577-2.297a4.757 4.757 0 0 0-1.027-1.408c-.794-.758-1.765-1.22-2.922-1.387-.56-.081-.672-.105-3.54-.11h-3.906z" fill="url(#a)" fill-rule="nonzero"/><path d="M13.004 1c-5.01 0-6.475.005-6.76.029-1.028.085-1.668.247-2.365.594A4.79 4.79 0 0 0 2.5 2.633c-.761.79-1.222 1.763-1.39 2.92-.08.56-.104.675-.11 3.542v3.9c0 5.007.006 6.472.03 6.756.083 1 .24 1.63.573 2.319a5.055 5.055 0 0 0 3.276 2.677c.495.127 1.04.198 1.742.23.297.014 3.326.023 6.357.023s6.062-.004 6.352-.018c.812-.039 1.283-.102 1.805-.237a5.025 5.025 0 0 0 3.276-2.682c.326-.673.491-1.326.566-2.275.016-.206.023-3.503.023-6.796s-.007-6.584-.024-6.79c-.075-.964-.24-1.612-.577-2.297a4.757 4.757 0 0 0-1.027-1.408c-.794-.758-1.765-1.22-2.922-1.387-.56-.081-.672-.105-3.54-.11h-3.906z" fill="url(#b)" fill-rule="nonzero"/><path d="M13 4c-2.443 0-2.75.01-3.71.054-.958.044-1.612.196-2.185.418A4.407 4.407 0 0 0 5.511 5.51c-.5.5-.808 1.003-1.039 1.594-.223.573-.375 1.227-.418 2.185C4.011 10.249 4 10.556 4 13s.01 2.75.054 3.71c.044.958.196 1.612.419 2.184A4.41 4.41 0 0 0 5.51 20.49c.5.5 1.002.809 1.593 1.038.573.223 1.227.375 2.185.419.96.043 1.267.054 3.71.054 2.445 0 2.751-.01 3.711-.054.958-.044 1.613-.196 2.186-.419a4.403 4.403 0 0 0 1.593-1.038c.5-.5.808-1.003 1.038-1.594.222-.573.374-1.227.419-2.185.043-.96.054-1.266.054-3.71s-.011-2.751-.054-3.711c-.045-.958-.197-1.612-.419-2.184A4.417 4.417 0 0 0 20.49 5.51c-.5-.5-1.002-.808-1.594-1.037-.574-.223-1.228-.375-2.186-.419C15.75 4.011 15.444 4 12.999 4h.003zm-.807 1.622h.808c2.403 0 2.688.008 3.637.052.877.04 1.353.186 1.67.31.42.163.72.358 1.035.673.315.315.51.615.673 1.035.124.317.27.793.31 1.67.043.95.053 1.234.053 3.636s-.01 2.687-.053 3.636c-.04.877-.186 1.353-.31 1.67-.163.42-.358.72-.673 1.034-.315.315-.614.51-1.034.673-.317.124-.794.27-1.671.31-.95.043-1.234.053-3.637.053s-2.688-.01-3.637-.053c-.877-.04-1.354-.187-1.671-.31a2.788 2.788 0 0 1-1.035-.673 2.79 2.79 0 0 1-.674-1.035c-.123-.316-.27-.793-.31-1.67-.043-.949-.051-1.234-.051-3.637 0-2.404.008-2.687.051-3.636.04-.877.187-1.354.31-1.67a2.8 2.8 0 0 1 .674-1.036c.315-.315.615-.51 1.035-.673.317-.124.794-.27 1.671-.31.83-.038 1.152-.05 2.83-.051v.002zm5.612 1.494a1.08 1.08 0 1 0 0 2.16 1.08 1.08 0 0 0 0-2.16zm-4.804 1.262a4.622 4.622 0 1 0 0 9.244 4.622 4.622 0 0 0 0-9.244zM13 10a3 3 0 1 1 0 6 3 3 0 0 1 0-6z" fill="#FFF" fill-rule="nonzero"/></g></svg>