<svg width="24" height="24" viewBox="0 0 24 24" xmlns="http://www.w3.org/2000/svg"><path d="M20.493 8.172c.01.181.014.364.014.547 0 5.586-4.252 12.026-12.027 12.026-2.386 0-4.608-.7-6.48-1.899a8.481 8.481 0 0 0 6.259-1.751 4.23 4.23 0 0 1-3.95-2.935 4.221 4.221 0 0 0 1.907-.072A4.232 4.232 0 0 1 2.825 9.94v-.05a4.23 4.23 0 0 0 1.915.527 4.227 4.227 0 0 1-1.307-5.643 11.995 11.995 0 0 0 8.712 4.416 4.186 4.186 0 0 1-.108-.964A4.226 4.226 0 0 1 16.262 4c1.217 0 2.316.513 3.087 1.333a8.435 8.435 0 0 0 2.684-1.025 4.247 4.247 0 0 1-1.859 2.338 8.374 8.374 0 0 0 2.427-.666 8.492 8.492 0 0 1-2.108 2.192z" fill="#7A88A3"/></svg>