<svg xmlns="http://www.w3.org/2000/svg" width="24" height="24" viewBox="0 0 24 24"><defs><linearGradient id="a" x1="61.235%" x2="74.706%" y1="43.69%" y2="80.24%"><stop offset="0%" stop-color="#FFF"/><stop offset="100%" stop-color="#FFF"/></linearGradient></defs><g fill="none" transform="translate(1 1)"><circle cx="11" cy="11" r="11" fill="#7A88A3"/><path fill="#B5C2DB" d="M8.8 16.5c-.389 0-.323-.147-.457-.517L7.2 12.221 16 7"/><path fill="#8FA2C6" d="M8.8 16.5c.3 0 .433-.137.6-.3l1.6-1.556-1.996-1.203"/><path fill="url(#a)" d="M9.004 13.441l4.836 3.573c.552.304.95.147 1.088-.512l1.968-9.277c.202-.808-.308-1.174-.836-.935L4.501 10.748c-.789.316-.784.756-.144.952l2.967.926 6.867-4.332c.324-.197.622-.091.377.125"/></g></svg>